<svg width="239.000000" height="65.000000" viewBox="0 0 239 65" fill="none" xmlns="http://www.w3.org/2000/svg" xmlns:xlink="http://www.w3.org/1999/xlink">
	<desc>
			Created with Pixso.
	</desc>
	<defs/>
	<path id="Nester A.A" d="M210.26 27.8L205.52 27.8L204.02 22.83L196.45 22.83L194.96 27.8L190.21 27.8L197.53 6.85L202.9 6.85L210.26 27.8ZM238.61 27.8L233.87 27.8L232.37 22.83L224.8 22.83L223.31 27.8L218.56 27.8L225.88 6.85L231.25 6.85L238.61 27.8ZM104.64 6.93L104.64 27.8L99.05 27.8L90.03 12.02L89.9 12.02Q90.17 16.3 90.17 17.98L90.17 27.8L86.25 27.8L86.25 6.93L91.78 6.93L100.8 22.56L100.89 22.56C100.75 19.95 100.69 18.04 100.69 16.81L100.69 6.93L104.64 6.93ZM145.93 22.8C145.93 23.4 146.1 23.86 146.44 24.17C146.77 24.46 147.28 24.61 147.97 24.61C148.65 24.61 149.51 24.45 150.55 24.12L150.55 27.35C149.48 27.84 148.12 28.08 146.47 28.08C144.83 28.08 143.61 27.65 142.81 26.78C142.01 25.91 141.61 24.59 141.61 22.8L141.61 15.11L139.53 15.11L139.53 13.27L141.91 11.81L143.17 8.45L145.93 8.45L145.93 11.85L150.38 11.85L150.38 15.11L145.93 15.11L145.93 22.8ZM197.56 19.12L202.96 19.12L200.62 11.5C200.45 10.93 200.32 10.46 200.24 10.09Q199.81 11.8 197.56 19.12ZM225.91 19.12L231.32 19.12L228.97 11.5C228.8 10.93 228.67 10.46 228.59 10.09C228.3 11.23 227.41 14.24 225.91 19.12ZM122.28 26.96Q120.04 28.08 116.7 28.08Q113.32 28.08 111.23 26.43Q110.96 26.22 110.71 25.97Q110.53 25.79 110.36 25.59L110.36 25.59Q108.57 23.51 108.57 19.89C108.57 17.24 109.23 15.19 110.55 13.73C111.9 12.27 113.71 11.55 115.99 11.55Q118.98 11.55 120.79 13L120.79 13Q121.06 13.23 121.31 13.48C122.56 14.77 123.18 16.54 123.18 18.79L123.18 20.9L112.95 20.9C112.99 22.15 113.36 23.12 114.04 23.82Q114.19 23.97 114.35 24.09L114.35 24.09Q115.34 24.85 116.91 24.85Q117.28 24.85 117.65 24.82L117.65 24.82Q120 24.68 122.28 23.6L122.28 26.96ZM136.08 19.52C137.21 20.38 137.77 21.59 137.77 23.17C137.77 24.74 137.2 25.96 136.07 26.81C134.93 27.66 133.3 28.08 131.17 28.08Q127.98 28.08 125.77 27.16L125.77 23.56C126.58 23.94 127.49 24.26 128.49 24.51C129.5 24.77 130.38 24.89 131.15 24.89C132.72 24.89 133.5 24.44 133.5 23.53C133.5 23.08 133.29 22.71 132.87 22.42C132.45 22.14 131.57 21.7 130.24 21.12C128.91 20.54 127.96 20.03 127.37 19.6C126.8 19.16 126.38 18.65 126.12 18.09C125.87 17.52 125.74 16.83 125.74 16C125.74 14.58 126.29 13.49 127.38 12.72C128.48 11.94 130 11.55 131.95 11.55C133.92 11.55 135.8 11.96 137.6 12.8L136.29 15.94C135.38 15.55 134.59 15.26 133.92 15.07C133.27 14.86 132.62 14.76 131.95 14.76C130.67 14.76 130.03 15.11 130.03 15.81C130.03 16.2 130.25 16.54 130.68 16.84C131.11 17.14 131.96 17.54 133.25 18.06C134.54 18.58 135.49 19.07 136.08 19.52ZM166.5 26.96C165.01 27.71 163.15 28.08 160.92 28.08C158.37 28.08 156.37 27.38 154.93 25.97C153.5 24.56 152.78 22.53 152.78 19.89C152.78 17.24 153.45 15.19 154.77 13.73C156.12 12.27 157.93 11.55 160.21 11.55C162.5 11.55 164.27 12.19 165.52 13.48C166.77 14.77 167.4 16.54 167.4 18.79L167.4 20.9L157.17 20.9C157.21 22.15 157.57 23.12 158.25 23.82C158.95 24.5 159.9 24.85 161.12 24.85C162.94 24.85 164.73 24.43 166.5 23.6L166.5 26.96ZM179.78 11.55C180.33 11.55 180.81 11.59 181.23 11.67L180.92 15.75Q180.38 15.6 179.64 15.6C178.25 15.6 177.17 15.96 176.39 16.68C175.62 17.39 175.24 18.39 175.24 19.68L175.24 27.8L170.92 27.8L170.92 11.85L174.2 11.85L174.83 14.53L175.05 14.53Q175.56 13.62 176.28 12.96Q176.65 12.62 177.07 12.35C177.91 11.81 178.81 11.55 179.78 11.55ZM119.11 18.01C119.1 16.95 118.83 16.12 118.3 15.52Q118.07 15.27 117.79 15.09Q117.1 14.64 116.1 14.64C115.19 14.64 114.47 14.93 113.94 15.52C113.42 16.11 113.12 16.94 113.05 18.01L119.11 18.01ZM163.33 18.01C163.32 16.95 163.05 16.12 162.51 15.52C161.98 14.93 161.24 14.64 160.32 14.64C159.41 14.64 158.69 14.93 158.16 15.52C157.63 16.11 157.34 16.94 157.26 18.01L163.33 18.01ZM216.9 25.74C216.9 26.5 216.68 27.09 216.24 27.53Q216.17 27.6 216.09 27.66Q215.46 28.18 214.41 28.18C213.63 28.18 213.02 27.97 212.58 27.54C212.15 27.12 211.93 26.52 211.93 25.74C211.93 24.95 212.14 24.36 212.56 23.94C213 23.53 213.61 23.33 214.41 23.33C215.21 23.33 215.82 23.54 216.25 23.96Q216.35 24.05 216.42 24.15Q216.9 24.76 216.9 25.74Z" fill="#4A4F55" fill-opacity="1.000000" fill-rule="evenodd"/>
	<path id="Юридична компанія" d="M229.75 41.14C229.96 41.14 230.13 41.21 230.28 41.34Q230.3 41.36 230.32 41.37L230.32 41.37Q230.51 41.57 230.51 41.95Q230.51 42.32 230.33 42.52Q230.3 42.54 230.28 42.56C230.13 42.69 229.96 42.76 229.75 42.76C229.53 42.76 229.35 42.69 229.2 42.56Q229.19 42.55 229.19 42.55L229.18 42.54Q228.99 42.34 228.99 41.95Q228.99 41.54 229.19 41.35Q229.2 41.34 229.2 41.34C229.35 41.21 229.53 41.14 229.75 41.14ZM99.58 46.89Q99.58 48.15 99.27 49.18C99.07 49.87 98.76 50.46 98.35 50.96C97.94 51.45 97.43 51.83 96.82 52.1Q95.91 52.5 94.7 52.5C93.64 52.5 92.76 52.28 92.04 51.85C91.32 51.41 90.78 50.8 90.4 50.01C90.02 49.22 89.81 48.29 89.77 47.23L87.05 47.23L87.05 52.35L85.76 52.35L85.76 41.47L87.05 41.47L87.05 46.11L89.8 46.11Q89.9 44.65 90.47 43.57Q90.8 42.96 91.28 42.5L91.28 42.5Q91.64 42.15 92.1 41.89Q93.15 41.29 94.67 41.29Q96.28 41.29 97.36 41.99Q97.71 42.21 98 42.49Q98.64 43.08 99.02 43.94Q99.58 45.2 99.58 46.89ZM91.13 46.87Q91.13 48.26 91.5 49.28C91.75 49.96 92.14 50.48 92.66 50.85Q93.44 51.4 94.66 51.4C95.49 51.4 96.17 51.22 96.7 50.85C97.22 50.48 97.61 49.96 97.86 49.29Q98.23 48.28 98.23 46.89C98.23 45.97 98.11 45.17 97.86 44.5Q97.57 43.7 97 43.19L97 43.19Q96.86 43.06 96.71 42.95Q95.93 42.41 94.69 42.41Q93.46 42.41 92.67 42.95Q92.54 43.04 92.42 43.15L92.42 43.15Q91.82 43.66 91.51 44.5Q91.13 45.49 91.13 46.87ZM105.79 44.04C106.83 44.04 107.66 44.39 108.28 45.09C108.89 45.79 109.2 46.84 109.2 48.25C109.2 49.17 109.06 49.95 108.78 50.58C108.49 51.21 108.09 51.69 107.58 52.01Q107.53 52.04 107.49 52.07L107.49 52.07Q106.75 52.5 105.76 52.5C105.32 52.5 104.93 52.44 104.6 52.33C104.26 52.21 103.98 52.06 103.74 51.86C103.5 51.67 103.3 51.46 103.15 51.23L103.06 51.23C103.07 51.42 103.09 51.66 103.11 51.93Q103.15 52.34 103.15 52.65L103.15 56L101.88 56L101.88 44.19L102.92 44.19L103.09 45.4L103.15 45.4C103.31 45.15 103.51 44.92 103.74 44.72Q104.09 44.41 104.59 44.23C104.93 44.1 105.33 44.04 105.79 44.04ZM187.36 48.25C187.36 48.92 187.27 49.52 187.09 50.05C186.92 50.57 186.66 51.02 186.33 51.38C185.99 51.74 185.59 52.02 185.11 52.21C184.64 52.4 184.11 52.5 183.51 52.5C182.95 52.5 182.44 52.4 181.97 52.21C181.51 52.02 181.11 51.74 180.77 51.38C180.44 51.02 180.18 50.57 179.99 50.05C179.81 49.52 179.72 48.92 179.72 48.25C179.72 47.36 179.87 46.6 180.18 45.98Q180.49 45.33 180.99 44.9L180.99 44.9Q181.23 44.7 181.5 44.54C182.08 44.21 182.77 44.04 183.56 44.04C184.32 44.04 184.98 44.21 185.55 44.54C186.12 44.87 186.57 45.35 186.88 45.98C187.2 46.61 187.36 47.37 187.36 48.25ZM162.56 44.06C163.56 44.06 164.29 44.27 164.78 44.71C165.26 45.15 165.5 45.84 165.5 46.8L165.5 52.35L164.58 52.35L164.33 51.14L164.27 51.14C164.04 51.44 163.8 51.69 163.54 51.89C163.29 52.09 163 52.24 162.66 52.35Q162.17 52.5 161.45 52.5C160.94 52.5 160.49 52.41 160.09 52.24C159.7 52.06 159.39 51.8 159.17 51.45C158.94 51.1 158.83 50.65 158.83 50.11C158.83 49.29 159.16 48.67 159.82 48.23C160.48 47.79 161.48 47.56 162.83 47.52L164.27 47.46L164.27 46.96C164.27 46.25 164.11 45.76 163.8 45.48Q163.8 45.47 163.79 45.47Q163.33 45.05 162.5 45.05C162.06 45.05 161.64 45.12 161.25 45.24C160.85 45.36 160.48 45.51 160.13 45.68L159.74 44.74C160.11 44.55 160.54 44.39 161.03 44.26C161.52 44.12 162.03 44.06 162.56 44.06ZM213.72 44.06C214.71 44.06 215.45 44.27 215.93 44.71Q215.94 44.72 215.94 44.72Q216.65 45.38 216.65 46.8L216.65 52.35L215.73 52.35L215.49 51.14L215.43 51.14C215.2 51.44 214.95 51.69 214.7 51.89C214.45 52.09 214.15 52.24 213.82 52.35C213.49 52.45 213.09 52.5 212.6 52.5C212.1 52.5 211.65 52.41 211.25 52.24C210.86 52.06 210.55 51.8 210.32 51.45C210.1 51.1 209.99 50.65 209.99 50.11C209.99 49.29 210.32 48.67 210.98 48.23C211.64 47.79 212.64 47.56 213.99 47.52L215.42 47.46L215.42 46.96C215.42 46.25 215.27 45.76 214.96 45.48C214.65 45.19 214.21 45.05 213.65 45.05C213.22 45.05 212.8 45.12 212.41 45.24C212.01 45.36 211.64 45.51 211.28 45.68L210.89 44.74C211.27 44.55 211.7 44.39 212.19 44.26C212.67 44.12 213.18 44.06 213.72 44.06ZM112.61 44.19L112.61 49.32C112.61 49.42 112.61 49.55 112.6 49.71C112.6 49.86 112.59 50.03 112.58 50.2C112.57 50.38 112.56 50.55 112.55 50.71C112.54 50.87 112.53 51 112.52 51.1L117.07 44.19L118.62 44.19L118.62 52.35L117.44 52.35L117.44 47.35C117.44 47.19 117.44 46.98 117.45 46.74C117.45 46.49 117.46 46.24 117.47 46.01Q117.49 45.64 117.49 45.44L112.97 52.35L111.41 52.35L111.41 44.19L112.61 44.19ZM127.4 44.19L127.4 51.3L128.6 51.3L128.6 55.17L127.37 55.17L127.37 52.35L121.48 52.35L121.48 55.17L120.27 55.17L120.27 51.3L120.92 51.3Q121.64 50.33 122.11 49.18C122.42 48.41 122.66 47.6 122.82 46.76C122.98 45.91 123.07 45.05 123.08 44.19L127.4 44.19ZM131.45 44.19L131.45 49.32C131.45 49.42 131.45 49.55 131.45 49.71C131.44 49.86 131.43 50.03 131.42 50.2C131.41 50.38 131.4 50.55 131.39 50.71Q131.39 50.95 131.37 51.1L135.91 44.19L137.46 44.19L137.46 52.35L136.29 52.35L136.29 47.35C136.29 47.19 136.29 46.98 136.29 46.74C136.3 46.49 136.31 46.24 136.32 46.01Q136.33 45.64 136.34 45.44L131.81 52.35L130.25 52.35L130.25 44.19L131.45 44.19ZM141.25 44.19L141.25 47.12C141.25 47.63 141.39 48.01 141.67 48.25C141.96 48.5 142.38 48.62 142.93 48.62C143.46 48.62 143.93 48.54 144.36 48.38C144.8 48.22 145.23 48.01 145.67 47.73L145.67 44.19L146.93 44.19L146.93 52.35L145.67 52.35L145.67 48.69C145.21 48.99 144.75 49.22 144.3 49.39C143.85 49.55 143.31 49.64 142.68 49.64C141.82 49.64 141.16 49.42 140.69 48.98Q140.5 48.81 140.36 48.6Q139.99 48.03 139.99 47.21L139.99 44.19L141.25 44.19ZM150.87 44.19L150.87 47.61L155.51 47.61L155.51 44.19L156.77 44.19L156.77 52.35L155.51 52.35L155.51 48.66L150.87 48.66L150.87 52.35L149.6 52.35L149.6 44.19L150.87 44.19ZM176.99 44.19L178.39 44.19L174.79 48.13L178.67 52.35L177.19 52.35L173.41 48.21L173.41 52.35L172.14 52.35L172.14 44.19L173.41 44.19L173.41 48.15L176.99 44.19ZM198.33 44.19L198.33 52.35L197.19 52.35L197.19 47.03Q197.19 46.71 197.21 46.37C197.22 46.14 197.24 45.91 197.26 45.69L197.22 45.69L194.45 52.35L193.38 52.35L190.68 45.69L190.64 45.69C190.65 45.91 190.66 46.14 190.67 46.37C190.68 46.59 190.68 46.83 190.68 47.08L190.68 52.35L189.53 52.35L189.53 44.19L191.23 44.19L193.92 50.86L196.65 44.19L198.33 44.19ZM207.93 44.19L207.93 52.35L206.66 52.35L206.66 45.25L202.22 45.25L202.22 52.35L200.95 52.35L200.95 44.19L207.93 44.19ZM220.52 44.19L220.52 47.61L225.17 47.61L225.17 44.19L226.43 44.19L226.43 52.35L225.17 52.35L225.17 48.66L220.52 48.66L220.52 52.35L219.25 52.35L219.25 44.19L220.52 44.19ZM230.36 44.19L230.36 52.35L229.1 52.35L229.1 44.19L230.36 44.19ZM233.44 52.35L231.97 52.35L234.37 48.91C234.02 48.83 233.69 48.71 233.39 48.53C233.1 48.35 232.85 48.1 232.67 47.78C232.48 47.46 232.39 47.07 232.39 46.59C232.39 45.81 232.66 45.21 233.19 44.81Q234 44.19 235.31 44.19L239 44.19L239 52.35L237.73 52.35L237.73 49.07L235.62 49.07L233.44 52.35ZM105.57 45.08Q104.71 45.08 104.17 45.41C103.82 45.63 103.57 45.96 103.41 46.39Q103.16 47.04 103.15 48.02L103.15 48.26Q103.15 49.3 103.38 50.01C103.53 50.49 103.79 50.85 104.14 51.1C104.5 51.35 104.98 51.47 105.59 51.47C106.1 51.47 106.53 51.33 106.88 51.06C107.22 50.79 107.48 50.41 107.65 49.92Q107.9 49.18 107.9 48.23Q107.9 46.79 107.33 45.94Q107.13 45.64 106.86 45.45Q106.35 45.08 105.57 45.08ZM181.02 48.25C181.02 48.91 181.11 49.48 181.29 49.96C181.47 50.44 181.74 50.81 182.11 51.08C182.48 51.34 182.96 51.47 183.54 51.47C184.12 51.47 184.59 51.34 184.96 51.08C185.33 50.81 185.61 50.44 185.79 49.96C185.96 49.48 186.05 48.91 186.05 48.25C186.05 47.6 185.96 47.04 185.79 46.57C185.61 46.1 185.34 45.73 184.97 45.47C184.6 45.21 184.12 45.08 183.53 45.08C182.66 45.08 182.03 45.36 181.62 45.92C181.22 46.48 181.02 47.26 181.02 48.25ZM126.18 45.17L124.2 45.17C124.16 45.9 124.05 46.63 123.88 47.38C123.71 48.13 123.49 48.85 123.21 49.53C122.93 50.2 122.61 50.79 122.24 51.3L126.18 51.3L126.18 45.17ZM233.62 46.6C233.62 47.09 233.79 47.45 234.15 47.69C234.5 47.92 235.01 48.04 235.67 48.04L237.73 48.04L237.73 45.22L235.45 45.22C234.8 45.22 234.33 45.35 234.04 45.61Q233.87 45.76 233.77 45.95Q233.62 46.23 233.62 46.6ZM164.25 48.33L162.98 48.38C161.94 48.42 161.21 48.59 160.79 48.88C160.36 49.17 160.15 49.59 160.15 50.12C160.15 50.59 160.29 50.93 160.58 51.16C160.87 51.38 161.25 51.49 161.73 51.49C162.47 51.49 163.07 51.29 163.54 50.89C164.02 50.49 164.25 49.88 164.25 49.08L164.25 48.33ZM215.41 48.33L214.14 48.38C213.1 48.42 212.37 48.59 211.94 48.88C211.52 49.17 211.3 49.59 211.3 50.12C211.3 50.59 211.45 50.93 211.74 51.16C212.03 51.38 212.41 51.49 212.89 51.49C213.62 51.49 214.23 51.29 214.7 50.89C215.17 50.49 215.41 49.88 215.41 49.08L215.41 48.33Z" fill="#4A4F55" fill-opacity="1.000000" fill-rule="evenodd"/>
	<path id="Vector" d="M69.31 30.06C69.31 30.06 69.4 30.53 69.39 31.26C69.39 31.63 69.33 32.05 69.23 32.51L69.23 32.51C69.18 32.73 69.12 32.97 69.03 33.2C68.94 33.44 68.83 33.67 68.71 33.9C68.59 34.11 68.47 34.31 68.34 34.49C68.21 34.68 68.07 34.85 67.93 35.01C67.65 35.32 67.37 35.59 67.11 35.8C66.86 36.01 66.62 36.16 66.46 36.26C66.44 36.28 66.41 36.29 66.39 36.31C66.11 37.6 65.76 38.87 65.34 40.13C65.24 40.42 65.14 40.71 65.03 41C65.05 40.95 65.07 40.91 65.1 40.86C65.21 40.64 65.34 40.4 65.47 40.17C65.53 40.05 65.6 39.94 65.66 39.82C65.72 39.7 65.78 39.58 65.85 39.47C65.98 39.25 66.11 39.03 66.24 38.84C66.25 38.82 66.27 38.8 66.28 38.78C66.4 38.61 66.5 38.45 66.62 38.33C66.86 38.05 67.1 37.83 67.32 37.66C67.55 37.49 67.74 37.37 67.91 37.28C68.25 37.11 68.47 37.08 68.47 37.08C68.47 37.08 68.48 37.21 68.46 37.42C68.45 37.63 68.42 37.93 68.34 38.28C68.25 38.64 68.14 39.04 67.95 39.46C67.76 39.88 67.5 40.3 67.17 40.69C66.55 41.39 65.84 41.86 65.25 42.13C64.9 42.29 64.62 42.39 64.44 42.45C64.19 43.03 63.92 43.61 63.63 44.18C63.2 45.05 62.72 45.88 62.21 46.68C62.23 46.65 62.26 46.63 62.28 46.6C62.29 46.58 62.3 46.57 62.32 46.55C62.36 46.5 62.41 46.45 62.46 46.39C62.49 46.35 62.53 46.31 62.56 46.27L62.69 46.12C62.73 46.07 62.77 46.02 62.81 45.97C62.97 45.77 63.15 45.58 63.32 45.39C63.66 45.02 63.98 44.68 64.29 44.47C64.59 44.27 64.85 44.11 65.1 44C65.34 43.89 65.56 43.83 65.75 43.79C66.12 43.71 66.34 43.74 66.34 43.74C66.34 43.74 66.25 44.22 65.97 44.88C65.83 45.21 65.62 45.56 65.36 45.92C65.23 46.1 65.09 46.28 64.92 46.45C64.75 46.62 64.57 46.78 64.37 46.92C64.19 47.05 64 47.17 63.82 47.27C63.63 47.37 63.44 47.46 63.26 47.53C62.88 47.67 62.53 47.77 62.23 47.83C61.86 47.9 61.56 47.92 61.38 47.93C61.03 48.43 60.65 48.91 60.28 49.38C60.23 49.45 60.17 49.52 60.12 49.58C59.99 49.74 59.86 49.89 59.72 50.04C59.63 50.16 59.53 50.27 59.44 50.38C59.29 50.55 59.14 50.71 58.98 50.88C58.9 50.96 58.81 51.05 58.73 51.14C58.65 51.23 58.56 51.31 58.48 51.4C58.44 51.44 58.4 51.48 58.36 51.52L58.37 51.5C58.42 51.47 58.47 51.43 58.52 51.39C58.71 51.24 58.91 51.09 59.11 50.95C59.21 50.87 59.32 50.8 59.42 50.73C59.48 50.68 59.54 50.64 59.6 50.6C59.64 50.57 59.68 50.54 59.72 50.51C59.91 50.37 60.11 50.24 60.3 50.13C60.4 50.08 60.49 50.03 60.58 49.99C60.67 49.94 60.75 49.9 60.84 49.87C61.48 49.6 62.03 49.56 62.39 49.57C62.76 49.59 62.97 49.68 62.97 49.68C62.97 49.68 62.93 49.79 62.84 49.98C62.75 50.16 62.6 50.41 62.4 50.69C62.3 50.83 62.18 50.98 62.05 51.12C61.92 51.27 61.78 51.42 61.61 51.56C61.28 51.83 60.91 52.1 60.46 52.28C60.05 52.44 59.64 52.54 59.26 52.59C58.86 52.63 58.5 52.63 58.19 52.61C57.82 52.59 57.52 52.53 57.34 52.49C56.19 53.53 54.98 54.44 53.73 55.22C53.77 55.2 53.81 55.18 53.85 55.16C53.87 55.15 53.88 55.15 53.9 55.14C54.05 55.07 54.21 55.01 54.37 54.94C54.43 54.92 54.5 54.89 54.56 54.86C54.78 54.77 55.01 54.67 55.23 54.59L55.28 54.57C55.71 54.42 56.11 54.28 56.45 54.24C57.14 54.17 57.66 54.24 58.02 54.35C58.38 54.47 58.57 54.61 58.57 54.61C58.57 54.61 58.32 55 57.82 55.46C57.57 55.67 57.25 55.9 56.89 56.1C56.71 56.2 56.5 56.28 56.29 56.35C56.08 56.41 55.85 56.47 55.62 56.5C55.51 56.52 55.41 56.53 55.31 56.54C55.2 56.54 55.09 56.54 54.99 56.54C54.78 56.53 54.58 56.52 54.39 56.49C54.19 56.47 54.01 56.43 53.83 56.39C53.66 56.35 53.49 56.3 53.34 56.25C52.99 56.13 52.71 56 52.54 55.91C52.53 55.92 52.52 55.93 52.5 55.94C52.48 55.95 52.46 55.96 52.44 55.97C52.27 56.07 52.08 56.16 51.9 56.25C51.8 56.3 51.7 56.35 51.6 56.4C51.46 56.47 51.32 56.54 51.18 56.61C51.09 56.65 51 56.69 50.9 56.73C50.85 56.75 50.81 56.77 50.76 56.79C50.66 56.83 50.56 56.88 50.46 56.92C50.28 57 50.09 57.08 49.91 57.15C49.75 57.21 49.59 57.27 49.43 57.33C49.3 57.37 49.18 57.42 49.05 57.47C48.87 57.53 48.69 57.58 48.51 57.64C48.57 57.63 48.62 57.63 48.68 57.62C48.78 57.6 48.88 57.59 48.98 57.57C49.34 57.51 49.72 57.45 50.09 57.43C50.55 57.37 50.99 57.34 51.34 57.4C52.02 57.48 52.52 57.7 52.85 57.91C53.02 58.02 53.14 58.11 53.22 58.18C53.3 58.25 53.34 58.3 53.34 58.3L53.28 58.35C53.24 58.39 53.19 58.44 53.11 58.5C52.96 58.61 52.73 58.77 52.44 58.92C52.3 59 52.14 59.08 51.97 59.15C51.8 59.21 51.61 59.27 51.41 59.31C51.21 59.36 51 59.39 50.78 59.41C50.56 59.43 50.33 59.41 50.1 59.38C49.25 59.29 48.47 58.89 47.92 58.55C47.67 58.4 47.46 58.23 47.31 58.11C47.3 58.1 47.29 58.09 47.28 58.08C47.25 58.06 47.23 58.04 47.2 58.02C46.68 58.16 46.17 58.27 45.65 58.35C45.51 58.38 45.37 58.41 45.23 58.43C45.14 58.45 45.05 58.46 44.96 58.47C44.91 58.48 44.86 58.48 44.81 58.49L43.98 58.59C43.8 58.61 43.62 58.62 43.44 58.63C43.35 58.64 43.25 58.64 43.16 58.65C43.08 58.66 43.01 58.66 42.94 58.67C42.99 58.67 43.05 58.68 43.11 58.68C43.33 58.7 43.57 58.73 43.81 58.76C43.91 58.78 44.02 58.79 44.12 58.8C44.26 58.82 44.39 58.83 44.52 58.85C44.75 58.89 44.97 58.93 45.18 58.99C45.39 59.03 45.58 59.08 45.74 59.15C46.07 59.28 46.34 59.44 46.57 59.6C46.8 59.75 46.98 59.9 47.13 60.04C47.41 60.32 47.53 60.55 47.53 60.55C47.53 60.55 47.43 60.6 47.26 60.68C47.09 60.76 46.85 60.87 46.53 60.93C46.23 61 45.86 61.05 45.45 61.05C45.05 61.03 44.6 60.95 44.16 60.78C43.34 60.44 42.66 59.9 42.19 59.4C41.91 59.11 41.71 58.85 41.59 58.69C41.58 58.69 41.56 58.7 41.54 58.7C41.4 58.47 41.21 57.93 41.6 57.61C41.72 57.45 41.92 57.2 42.17 56.91L42.21 56.86C42.62 56.39 43.17 55.77 43.77 55.34C44.11 55.08 44.44 54.9 44.75 54.79C45.06 54.66 45.35 54.59 45.6 54.56C45.85 54.54 46.06 54.52 46.21 54.52C46.36 54.52 46.44 54.54 46.44 54.54C46.44 54.54 46.43 54.79 46.3 55.17C46.23 55.36 46.13 55.59 45.99 55.82C45.84 56.04 45.65 56.28 45.4 56.52C45.28 56.64 45.12 56.76 44.95 56.87C44.77 56.97 44.57 57.06 44.37 57.15C44.35 57.16 44.33 57.16 44.31 57.17C44.12 57.25 43.92 57.33 43.72 57.39C43.5 57.45 43.28 57.51 43.06 57.56C43.02 57.57 42.97 57.58 42.92 57.59C43.03 57.59 43.14 57.58 43.25 57.57L43.39 57.57C43.47 57.56 43.56 57.56 43.64 57.55L43.84 57.54L44.04 57.52C44.13 57.51 44.22 57.49 44.31 57.48C44.75 57.43 45.2 57.38 45.65 57.29C46.1 57.22 46.55 57.12 47 57.01L47.01 57C47.03 56.98 47.04 56.95 47.06 56.91C47.12 56.79 47.19 56.64 47.28 56.46C47.33 56.38 47.38 56.28 47.43 56.18C47.75 55.57 48.18 54.85 48.69 54.23C48.82 54.07 48.96 53.94 49.09 53.82C49.1 53.81 49.11 53.8 49.12 53.79C49.26 53.65 49.41 53.53 49.55 53.43C49.69 53.34 49.82 53.25 49.96 53.18C50.09 53.11 50.21 53.05 50.33 52.99C50.57 52.89 50.77 52.84 50.92 52.8C50.96 52.8 50.99 52.79 51.02 52.78C51.05 52.78 51.07 52.77 51.09 52.77L51.15 52.76C51.15 52.76 51.16 52.82 51.16 52.94C51.17 53.05 51.16 53.22 51.13 53.41C51.07 53.81 50.91 54.37 50.52 54.96C50.31 55.25 49.99 55.56 49.62 55.85C49.25 56.11 48.83 56.38 48.43 56.58C48.4 56.6 48.37 56.61 48.34 56.62C48.33 56.63 48.31 56.64 48.29 56.65C48.33 56.64 48.37 56.63 48.41 56.61L48.52 56.58C48.61 56.55 48.7 56.52 48.79 56.49C48.84 56.47 48.89 56.45 48.94 56.44C49.03 56.4 49.13 56.36 49.23 56.33C49.41 56.27 49.58 56.2 49.76 56.14C50.02 56.03 50.27 55.92 50.53 55.81L50.58 55.79C50.78 55.71 50.97 55.62 51.16 55.53C51.24 55.49 51.32 55.45 51.4 55.41C51.45 55.38 51.5 55.36 51.56 55.33C51.77 55.23 51.98 55.13 52.18 55.01C52.23 54.81 52.31 54.48 52.43 54.09C52.48 53.93 52.53 53.76 52.59 53.58C52.65 53.39 52.72 53.2 52.79 53.01C52.86 52.82 52.94 52.62 53.02 52.43C53.06 52.34 53.11 52.25 53.15 52.16C53.2 52.06 53.24 51.97 53.29 51.88C53.39 51.67 53.51 51.49 53.62 51.32C53.72 51.19 53.81 51.08 53.91 50.96C53.93 50.94 53.95 50.91 53.98 50.88C54.21 50.61 54.45 50.4 54.66 50.25C55.08 49.92 55.41 49.8 55.41 49.8C55.41 49.8 55.5 50.04 55.51 50.45C55.53 50.85 55.49 51.45 55.21 52.11C55.07 52.46 54.82 52.85 54.5 53.21C54.35 53.39 54.18 53.57 54.01 53.75C53.85 53.91 53.68 54.06 53.51 54.2L53.48 54.23C53.46 54.25 53.45 54.26 53.43 54.27C53.41 54.29 53.38 54.31 53.36 54.33C53.51 54.24 53.66 54.15 53.81 54.05C53.99 53.95 54.16 53.82 54.33 53.7C54.42 53.64 54.51 53.58 54.59 53.52L54.98 53.25C55.07 53.19 55.15 53.13 55.23 53.06C55.28 53.03 55.32 52.99 55.37 52.96C55.87 52.58 56.36 52.17 56.85 51.74C56.86 51.53 56.88 51.19 56.91 50.78C56.94 50.43 56.99 50.04 57.06 49.63C57.12 49.22 57.21 48.79 57.33 48.39C57.47 47.95 57.63 47.56 57.82 47.25C57.91 47.09 58 46.94 58.09 46.81C58.18 46.67 58.27 46.56 58.36 46.45C58.51 46.28 58.66 46.14 58.77 46.04C58.79 46.02 58.81 46 58.82 45.98C58.94 45.88 59.02 45.82 59.02 45.82C59.02 45.82 59.14 46.04 59.24 46.43C59.34 46.83 59.39 47.4 59.25 48.14C59.24 48.23 59.21 48.33 59.18 48.43C59.15 48.53 59.11 48.63 59.07 48.73C58.99 48.94 58.89 49.16 58.77 49.38C58.76 49.39 58.76 49.41 58.75 49.42C58.7 49.52 58.65 49.62 58.59 49.71C58.52 49.82 58.46 49.93 58.39 50.03C58.25 50.25 58.11 50.45 57.97 50.65C57.95 50.67 57.93 50.69 57.92 50.71C57.91 50.72 57.9 50.74 57.89 50.75C58.02 50.62 58.16 50.48 58.29 50.34C58.69 49.94 59.07 49.5 59.45 49.06C59.51 48.99 59.57 48.91 59.64 48.84C59.85 48.57 60.06 48.3 60.27 48.03C60.41 47.86 60.54 47.68 60.67 47.5C60.7 47.45 60.74 47.4 60.78 47.35C60.75 47.14 60.7 46.8 60.67 46.4C60.63 46.05 60.6 45.65 60.59 45.24C60.58 45.03 60.59 44.82 60.59 44.6C60.59 44.39 60.6 44.17 60.62 43.96C60.64 43.72 60.68 43.5 60.73 43.3C60.77 43.09 60.82 42.9 60.87 42.72C60.97 42.4 61.1 42.13 61.21 41.9C61.23 41.87 61.25 41.83 61.26 41.8C61.52 41.3 61.78 41.03 61.78 41.03C61.78 41.03 61.94 41.2 62.11 41.56C62.19 41.74 62.27 41.96 62.34 42.24C62.4 42.51 62.46 42.85 62.45 43.22C62.44 43.59 62.36 44.07 62.21 44.56C62.14 44.8 62.05 45.05 61.96 45.29C61.91 45.41 61.87 45.53 61.82 45.65C61.78 45.75 61.74 45.84 61.7 45.93C61.69 45.95 61.68 45.97 61.66 46C61.64 46.05 61.62 46.09 61.6 46.14C61.61 46.11 61.63 46.09 61.64 46.07C61.77 45.87 61.9 45.67 62.02 45.46L62.55 44.55L63.04 43.62C63.3 43.1 63.55 42.58 63.78 42.05C63.71 41.85 63.6 41.54 63.49 41.16L63.48 41.13C63.3 40.48 63.06 39.62 62.99 38.79C62.93 38.32 62.95 37.89 63 37.51C63.04 37.13 63.11 36.8 63.19 36.52C63.28 36.24 63.37 36.02 63.43 35.86C63.5 35.71 63.55 35.62 63.55 35.62C63.55 35.62 63.74 35.75 63.97 36.06C64.09 36.21 64.22 36.42 64.33 36.67C64.45 36.92 64.55 37.22 64.62 37.59C64.66 37.78 64.68 37.99 64.68 38.22C64.68 38.45 64.67 38.7 64.65 38.96C64.64 39 64.64 39.04 64.64 39.08C64.61 39.3 64.59 39.53 64.55 39.74C64.5 40 64.45 40.26 64.39 40.51C64.38 40.53 64.38 40.55 64.37 40.58C64.37 40.6 64.36 40.63 64.36 40.65C64.48 40.33 64.6 40.02 64.71 39.7C65.1 38.52 65.43 37.32 65.7 36.11C65.7 36.1 65.69 36.1 65.69 36.09C65.68 36.07 65.66 36.05 65.65 36.03C65.55 35.85 65.41 35.61 65.25 35.31C65.09 35.01 64.91 34.67 64.75 34.3C64.66 34.11 64.59 33.92 64.51 33.73C64.44 33.53 64.36 33.33 64.3 33.13C64.23 32.9 64.19 32.68 64.15 32.48C64.14 32.43 64.14 32.38 64.13 32.34C64.11 32.18 64.08 32.02 64.07 31.87C64.06 31.68 64.05 31.5 64.06 31.33C64.06 31.24 64.06 31.16 64.07 31.08C64.07 31 64.08 30.93 64.08 30.85C64.13 30.27 64.27 29.89 64.27 29.89C64.27 29.89 64.47 29.96 64.76 30.2C64.9 30.32 65.06 30.49 65.22 30.71C65.38 30.92 65.55 31.2 65.68 31.54C65.74 31.71 65.8 31.91 65.85 32.14C65.9 32.36 65.94 32.61 65.96 32.86C65.98 33.12 66 33.39 66.01 33.65C66.01 33.79 66.01 33.92 66.01 34.05C66.01 34.16 66.01 34.25 66.01 34.35C66 34.38 66 34.41 66 34.44L66 34.48C66 34.52 65.99 34.56 65.99 34.59C66.17 33.51 66.31 32.43 66.38 31.35C66.42 30.83 66.44 30.32 66.45 29.81C66.31 29.66 66.1 29.44 65.86 29.15C65.65 28.9 65.42 28.61 65.18 28.29C64.94 27.97 64.73 27.62 64.53 27.26C64.3 26.86 64.17 26.46 64.07 26.1C63.96 25.73 63.91 25.39 63.88 25.1C63.81 24.52 63.87 24.11 63.87 24.11C63.87 24.11 64.09 24.13 64.41 24.29C64.73 24.46 65.17 24.76 65.56 25.36C65.76 25.66 65.95 26.09 66.09 26.58C66.16 26.82 66.23 27.08 66.29 27.34C66.34 27.6 66.39 27.86 66.43 28.11C66.44 28.15 66.44 28.2 66.45 28.24C66.44 27.89 66.43 27.54 66.41 27.19C66.34 25.92 66.19 24.68 65.99 23.47C65.97 23.46 65.95 23.44 65.92 23.43C65.76 23.32 65.54 23.17 65.28 22.98C65.03 22.79 64.76 22.56 64.46 22.31L64.46 22.31C64.17 22.06 63.89 21.78 63.63 21.48C63.33 21.14 63.12 20.8 62.96 20.47C62.78 20.14 62.67 19.82 62.59 19.54C62.41 18.99 62.39 18.58 62.39 18.58C62.39 18.58 62.6 18.54 62.95 18.62C63.29 18.69 63.78 18.88 64.27 19.36C64.4 19.48 64.53 19.63 64.66 19.81C64.79 19.99 64.9 20.19 65.02 20.41C65.03 20.43 65.04 20.45 65.05 20.47C65.16 20.67 65.27 20.88 65.36 21.1C65.46 21.34 65.56 21.58 65.65 21.82C65.65 21.84 65.66 21.86 65.67 21.88C65.68 21.9 65.68 21.92 65.69 21.94C65.5 21.11 65.29 20.3 65.06 19.51C64.84 18.78 64.59 18.08 64.33 17.41C64.3 17.4 64.28 17.39 64.25 17.38C64.08 17.32 63.83 17.23 63.55 17.11C63.26 16.99 62.95 16.84 62.62 16.67C62.29 16.5 61.96 16.3 61.65 16.07C61.3 15.82 61.02 15.53 60.8 15.25C60.57 14.98 60.39 14.7 60.26 14.44C59.98 13.95 59.88 13.56 59.88 13.56C59.88 13.56 60.09 13.46 60.44 13.45C60.79 13.44 61.3 13.49 61.87 13.83C62.02 13.92 62.17 14.03 62.33 14.17C62.49 14.32 62.65 14.49 62.8 14.67C62.82 14.69 62.83 14.7 62.84 14.72C62.99 14.89 63.14 15.06 63.27 15.26C63.41 15.46 63.55 15.68 63.68 15.88C63.69 15.9 63.7 15.91 63.71 15.92C63.72 15.95 63.74 15.97 63.75 16C63.66 15.8 63.57 15.6 63.48 15.4C63.42 15.27 63.36 15.14 63.3 15.02C63.24 14.89 63.18 14.77 63.11 14.65C63.04 14.5 62.97 14.36 62.9 14.22L62.74 13.92C62.68 13.81 62.61 13.69 62.55 13.57C62.48 13.46 62.42 13.34 62.36 13.23C62.1 12.77 61.83 12.33 61.56 11.91C61.54 11.91 61.51 11.91 61.48 11.91C61.29 11.89 61.04 11.87 60.74 11.82C60.15 11.73 59.37 11.59 58.69 11.29C58.29 11.14 57.98 10.93 57.7 10.71C57.42 10.5 57.2 10.27 57.02 10.06C56.66 9.65 56.49 9.29 56.49 9.29C56.49 9.29 56.67 9.15 57.01 9.04C57.35 8.94 57.86 8.86 58.48 9.05C58.64 9.1 58.81 9.17 59 9.27C59.18 9.36 59.36 9.5 59.55 9.63C59.74 9.77 59.93 9.92 60.11 10.09C60.29 10.25 60.47 10.42 60.63 10.59C60.66 10.62 60.68 10.64 60.71 10.67L60.73 10.69C60.19 9.94 59.65 9.27 59.11 8.65C58.67 8.14 58.23 7.68 57.81 7.26C57.8 7.26 57.78 7.27 57.77 7.27C57.76 7.27 57.74 7.27 57.73 7.27C57.55 7.31 57.29 7.35 56.99 7.38C56.4 7.44 55.62 7.5 54.89 7.39C54.48 7.34 54.13 7.21 53.82 7.08C53.51 6.94 53.25 6.78 53.04 6.61C52.6 6.31 52.37 6 52.37 6C52.37 6 52.52 5.82 52.83 5.63C53.14 5.44 53.62 5.23 54.27 5.26C54.43 5.26 54.61 5.29 54.81 5.34C55.01 5.38 55.2 5.46 55.41 5.55L55.42 5.55C55.63 5.64 55.85 5.73 56.05 5.85C56.26 5.96 56.46 6.09 56.66 6.21C56.68 6.22 56.7 6.23 56.72 6.24C56.73 6.26 56.75 6.27 56.77 6.28C56.54 6.07 56.32 5.88 56.11 5.7C55.4 5.13 54.8 4.69 54.33 4.36L54.26 4.35C54.21 4.34 54.15 4.33 54.1 4.32C53.93 4.28 53.73 4.25 53.53 4.2C53.47 4.19 53.41 4.17 53.35 4.16C52.57 3.97 51.62 3.75 50.8 3.35C50.61 3.27 50.42 3.16 50.24 3.05C50.11 2.97 49.99 2.88 49.86 2.79C49.82 2.76 49.77 2.72 49.72 2.69C49.43 2.47 49.16 2.22 48.92 2.01C48.9 1.98 48.87 1.96 48.85 1.94C48.34 1.47 48.03 1.06 48.03 1.06C48.03 1.06 48.46 0.89 49.14 0.8C49.47 0.76 49.86 0.77 50.28 0.81C50.49 0.82 50.7 0.87 50.92 0.93C51.13 0.99 51.35 1.07 51.56 1.16C52.53 1.62 53.42 2.43 54.01 3.16C54.16 3.34 54.3 3.51 54.42 3.67C54.48 3.74 54.53 3.82 54.57 3.89C55.06 4.22 55.68 4.66 56.4 5.25C56.62 5.42 56.84 5.61 57.07 5.81C57.05 5.79 57.03 5.76 57 5.74L56.98 5.71C56.82 5.53 56.65 5.33 56.49 5.13C56.43 5.07 56.38 5 56.33 4.94C56.21 4.81 56.1 4.67 56 4.54C55.87 4.39 55.76 4.23 55.65 4.07C55.62 4.03 55.59 3.99 55.56 3.95C55.43 3.77 55.31 3.58 55.23 3.41C54.88 2.71 54.72 2.13 54.66 1.7C54.6 1.27 54.63 1.01 54.63 1.01C54.63 1.01 55.04 1.12 55.6 1.45C55.87 1.62 56.18 1.86 56.48 2.16C56.79 2.47 57.08 2.87 57.33 3.33C57.76 4.18 57.98 5.11 58.07 5.83C58.12 6.19 58.14 6.49 58.14 6.71C58.14 6.75 58.15 6.78 58.15 6.82C58.58 7.25 59.04 7.72 59.5 8.24C60.04 8.86 60.59 9.54 61.14 10.29C61.12 10.25 61.09 10.2 61.07 10.16C60.95 9.94 60.82 9.71 60.7 9.47C60.65 9.38 60.61 9.29 60.56 9.2C60.48 9.06 60.4 8.91 60.33 8.77C60.24 8.57 60.15 8.38 60.07 8.19C60.05 8.15 60.04 8.12 60.02 8.08C59.93 7.86 59.85 7.66 59.79 7.46C59.59 6.7 59.54 6.09 59.57 5.65C59.59 5.22 59.67 4.97 59.67 4.97C59.67 4.97 60.05 5.18 60.53 5.65C60.76 5.89 61.02 6.2 61.26 6.57C61.5 6.95 61.7 7.41 61.86 7.92C62.12 8.87 62.16 9.83 62.11 10.56C62.09 10.92 62.05 11.22 62.02 11.43C62.01 11.47 62.01 11.5 62 11.53C62.29 11.97 62.57 12.43 62.85 12.92C62.93 13.07 63.02 13.23 63.11 13.39C63.16 13.47 63.2 13.55 63.25 13.62C63.37 13.87 63.5 14.12 63.63 14.36L63.69 14.48C63.7 14.51 63.72 14.54 63.73 14.57L63.99 15.1C64.04 15.21 64.09 15.31 64.13 15.41C64.18 15.51 64.22 15.6 64.27 15.7C64.25 15.65 64.24 15.6 64.22 15.55C64.14 15.31 64.07 15.05 63.99 14.79C63.96 14.67 63.93 14.55 63.89 14.44C63.85 14.29 63.8 14.15 63.77 14C63.7 13.75 63.64 13.49 63.59 13.25C63.54 13.02 63.5 12.8 63.49 12.59C63.43 11.79 63.5 11.19 63.61 10.77C63.71 10.35 63.83 10.13 63.83 10.13C63.83 10.13 64.16 10.43 64.55 11.01C64.73 11.31 64.92 11.67 65.08 12.1C65.24 12.53 65.36 13.03 65.42 13.57C65.46 14.07 65.44 14.55 65.39 15C65.35 15.45 65.25 15.87 65.16 16.21C65.07 16.56 64.98 16.84 64.91 17.04C64.89 17.07 64.88 17.11 64.87 17.14C65.14 17.85 65.41 18.59 65.65 19.35C65.89 20.15 66.11 20.97 66.3 21.82C66.3 21.79 66.29 21.77 66.29 21.75C66.29 21.71 66.28 21.67 66.28 21.63C66.25 21.37 66.22 21.09 66.2 20.82C66.19 20.69 66.18 20.57 66.16 20.45C66.15 20.3 66.13 20.15 66.13 20C66.11 19.73 66.1 19.46 66.1 19.22C66.09 18.98 66.1 18.75 66.12 18.55C66.22 17.75 66.4 17.18 66.58 16.8C66.76 16.41 66.92 16.23 66.92 16.23C66.92 16.23 67.19 16.61 67.45 17.27C67.57 17.61 67.69 18.02 67.77 18.48C67.85 18.94 67.86 19.46 67.82 20C67.76 20.49 67.65 20.96 67.52 21.39C67.39 21.81 67.22 22.2 67.07 22.51C66.91 22.83 66.77 23.08 66.66 23.25C66.65 23.28 66.63 23.3 66.61 23.32L66.61 23.34C66.82 24.6 66.98 25.91 67.07 27.24C67.09 27.58 67.1 27.91 67.11 28.25C67.11 28.19 67.12 28.14 67.12 28.08C67.14 27.82 67.17 27.55 67.2 27.27C67.23 27 67.25 26.72 67.29 26.45C67.36 25.92 67.44 25.42 67.56 25.04C67.81 24.29 68.09 23.78 68.34 23.45C68.59 23.12 68.78 22.99 68.78 22.99C68.78 22.99 68.97 23.43 69.1 24.14C69.16 24.5 69.19 24.93 69.18 25.4C69.17 25.87 69.08 26.38 68.93 26.9C68.79 27.36 68.58 27.79 68.38 28.17C68.17 28.55 67.94 28.88 67.72 29.15C67.47 29.47 67.25 29.71 67.11 29.84C67.1 30.4 67.08 30.96 67.05 31.52C67.02 31.88 66.99 32.24 66.96 32.61C66.94 32.84 66.91 33.07 66.88 33.31C66.86 33.43 66.84 33.56 66.83 33.69L66.76 34.24L66.67 34.76C66.68 34.73 66.69 34.69 66.7 34.66L66.72 34.6L66.83 34.22C66.87 34.09 66.91 33.96 66.94 33.83C67.02 33.57 67.1 33.31 67.19 33.05C67.23 32.95 67.26 32.85 67.29 32.76C67.34 32.61 67.39 32.47 67.44 32.34C67.53 32.11 67.62 31.91 67.72 31.74C67.92 31.41 68.1 31.13 68.28 30.91C68.46 30.69 68.64 30.52 68.79 30.39C69.09 30.14 69.31 30.06 69.31 30.06ZM53.71 3.71C53.92 3.83 54.08 3.91 54.19 3.97C54.3 4.03 54.36 4.06 54.36 4.06C54.36 4.06 54.31 4.01 54.21 3.94C54.1 3.86 53.95 3.75 53.76 3.61C53.57 3.46 53.33 3.29 53.05 3.12C52.91 3.04 52.76 2.95 52.6 2.85C52.44 2.75 52.27 2.66 52.08 2.57C51.45 2.24 50.66 1.91 50.02 1.69C49.86 1.64 49.72 1.59 49.59 1.55C49.45 1.5 49.32 1.46 49.22 1.43C49.15 1.4 49.09 1.39 49.04 1.38C49.02 1.37 49 1.37 48.98 1.36C48.92 1.35 48.89 1.34 48.89 1.34L48.98 1.37C49 1.38 49.02 1.39 49.04 1.4C49.09 1.41 49.14 1.43 49.21 1.46C49.29 1.5 49.38 1.54 49.49 1.59C49.63 1.65 49.8 1.73 49.98 1.81C50.6 2.09 51.37 2.47 52 2.8C52.18 2.89 52.35 2.97 52.51 3.07L52.97 3.31C53.21 3.43 53.43 3.55 53.61 3.66C53.64 3.68 53.68 3.7 53.71 3.71ZM57.05 6.76C57.07 6.76 57.08 6.77 57.1 6.78C57.33 6.87 57.57 6.98 57.83 7.1C57.34 6.8 56.86 6.53 56.39 6.36C56.16 6.27 55.93 6.19 55.71 6.13C55.49 6.07 55.27 6.02 55.07 5.99C54.66 5.91 54.29 5.89 53.96 5.91C53.64 5.92 53.37 5.95 53.16 6.02C53.49 6.08 53.82 6.11 54.16 6.15C54.5 6.18 54.85 6.21 55.22 6.27C55.6 6.32 55.99 6.41 56.43 6.54C56.49 6.56 56.55 6.58 56.62 6.6C56.67 6.61 56.71 6.63 56.76 6.64C56.86 6.68 56.95 6.72 57.05 6.76ZM56.68 4.81C56.79 4.99 56.9 5.18 57.02 5.37C57.1 5.49 57.18 5.61 57.26 5.73C57.5 6.1 57.74 6.48 58.01 6.84C57.86 6.58 57.71 6.32 57.58 6.08C57.51 5.95 57.44 5.83 57.38 5.71C57.34 5.64 57.3 5.57 57.26 5.5C57.24 5.45 57.21 5.4 57.19 5.36C57.07 5.13 56.96 4.91 56.85 4.7C56.73 4.48 56.62 4.26 56.51 4.06C56.09 3.24 55.7 2.53 55.19 1.86C55.28 2.11 55.41 2.44 55.58 2.8C55.74 3.12 55.92 3.47 56.13 3.85C56.16 3.9 56.18 3.95 56.21 3.99C56.33 4.21 56.46 4.43 56.6 4.66C56.62 4.71 56.65 4.76 56.68 4.81ZM58.21 9.89C58.54 10.01 58.87 10.14 59.22 10.29C59.93 10.59 60.71 11.02 61.6 11.76C61.18 11.34 60.77 10.96 60.34 10.67C60.13 10.53 59.93 10.39 59.73 10.27C59.52 10.16 59.32 10.06 59.13 9.97C58.75 9.79 58.38 9.68 58.06 9.61C57.75 9.54 57.48 9.5 57.26 9.51C57.57 9.65 57.88 9.77 58.21 9.89ZM60.91 9.07C60.99 9.32 61.08 9.58 61.18 9.84C61.23 9.98 61.29 10.12 61.35 10.27C61.51 10.68 61.67 11.11 61.86 11.53C61.56 10.63 61.33 9.83 61.12 9.11C61.05 8.87 60.99 8.65 60.93 8.43C60.67 7.52 60.42 6.72 60.06 5.95C60.1 6.21 60.16 6.57 60.26 6.96C60.35 7.33 60.48 7.75 60.62 8.2L60.64 8.29C60.72 8.53 60.8 8.78 60.89 9.04L60.91 9.07ZM61.46 14.59C61.75 14.79 62.05 14.99 62.36 15.22C63 15.7 63.68 16.32 64.4 17.27C64.07 16.75 63.75 16.28 63.38 15.89C63.21 15.69 63.03 15.51 62.86 15.34C62.68 15.18 62.5 15.03 62.33 14.89C62.15 14.76 61.99 14.64 61.83 14.53C61.66 14.43 61.51 14.34 61.36 14.27C61.06 14.12 60.81 14.01 60.59 13.97C60.87 14.19 61.16 14.38 61.46 14.59ZM64.26 14.41C64.3 14.69 64.34 14.97 64.39 15.27C64.42 15.43 64.45 15.59 64.48 15.76C64.55 16.19 64.63 16.64 64.74 17.09C64.61 16.12 64.53 15.28 64.47 14.51C64.45 14.28 64.43 14.05 64.41 13.83C64.33 12.88 64.24 12.03 64.03 11.18C64.02 11.45 64.01 11.81 64.03 12.22C64.05 12.43 64.06 12.65 64.09 12.88C64.09 12.95 64.1 13.04 64.11 13.12C64.12 13.28 64.14 13.44 64.16 13.61C64.19 13.87 64.22 14.14 64.26 14.41ZM63.73 19.99C63.97 20.26 64.22 20.53 64.48 20.84C65.01 21.47 65.56 22.24 66.09 23.36C65.86 22.77 65.64 22.22 65.36 21.75C65.22 21.51 65.08 21.29 64.95 21.08C64.8 20.87 64.66 20.68 64.52 20.51C64.37 20.33 64.24 20.17 64.1 20.03C63.96 19.89 63.82 19.76 63.69 19.65C63.43 19.43 63.2 19.26 63 19.16C63.23 19.45 63.47 19.71 63.73 19.99ZM66.53 20.52C66.52 20.8 66.5 21.09 66.49 21.39C66.49 21.56 66.49 21.73 66.49 21.9C66.48 22.34 66.47 22.8 66.49 23.26C66.54 22.28 66.63 21.44 66.71 20.68C66.74 20.44 66.76 20.21 66.79 19.99C66.89 19.04 66.96 18.19 66.92 17.31C66.85 17.57 66.78 17.92 66.73 18.32C66.7 18.53 66.67 18.75 66.65 18.98C66.64 19.05 66.64 19.12 66.63 19.19C66.61 19.36 66.59 19.54 66.58 19.72C66.56 19.97 66.54 20.24 66.53 20.52ZM65.78 27.45C65.87 27.65 65.97 27.87 66.06 28.11C66.26 28.58 66.41 29.11 66.56 29.72C66.51 29.41 66.46 29.1 66.39 28.81C66.34 28.56 66.27 28.31 66.2 28.08C66.19 28.04 66.17 28 66.16 27.97L66.14 27.91C66.06 27.67 65.99 27.43 65.89 27.21C65.79 26.97 65.68 26.75 65.58 26.54C65.38 26.12 65.15 25.78 64.94 25.49C64.73 25.21 64.54 24.99 64.36 24.84C64.38 24.88 64.4 24.92 64.42 24.95C64.57 25.24 64.72 25.52 64.9 25.81C65.1 26.14 65.28 26.48 65.48 26.85C65.5 26.89 65.52 26.93 65.54 26.97C65.62 27.12 65.71 27.28 65.78 27.45ZM43.06 57.13C42.66 57.37 42.21 57.55 41.68 57.74C41.95 57.67 42.22 57.61 42.47 57.53C42.68 57.47 42.88 57.38 43.08 57.29C43.11 57.28 43.15 57.26 43.18 57.25C43.41 57.14 43.62 57.04 43.83 56.93C44.03 56.8 44.22 56.68 44.39 56.55C44.57 56.43 44.73 56.31 44.88 56.18C45.03 56.05 45.16 55.92 45.28 55.8C45.52 55.55 45.7 55.31 45.83 55.12C45.55 55.31 45.29 55.52 45.01 55.75C44.77 55.95 44.52 56.14 44.26 56.34C44.21 56.38 44.17 56.41 44.12 56.44C43.81 56.69 43.46 56.91 43.06 57.13ZM43.99 59.21C43.75 59.13 43.51 59.05 43.26 58.98C43.13 58.94 42.99 58.9 42.86 58.87C42.74 58.84 42.61 58.81 42.49 58.77C42.23 58.7 41.96 58.63 41.68 58.57C42.01 58.68 42.32 58.8 42.61 58.91C42.79 58.98 42.97 59.05 43.14 59.11C43.35 59.19 43.56 59.27 43.76 59.36C43.97 59.45 44.18 59.53 44.38 59.61C44.51 59.65 44.63 59.7 44.75 59.75C45.01 59.85 45.26 59.95 45.51 60.03C45.88 60.15 46.24 60.25 46.62 60.32C46.41 60.18 46.13 60.03 45.8 59.89C45.65 59.82 45.49 59.75 45.31 59.69L45.27 59.67C45.07 59.59 44.87 59.51 44.66 59.43C44.44 59.35 44.22 59.28 43.99 59.21ZM47.19 57.06C47.16 57.08 47.14 57.09 47.12 57.1C47.14 57.09 47.17 57.08 47.2 57.07C47.3 57.02 47.39 56.97 47.49 56.91C47.61 56.84 47.73 56.77 47.84 56.7C48.07 56.55 48.28 56.4 48.49 56.25C48.89 55.92 49.24 55.59 49.54 55.26C49.83 54.92 50.07 54.59 50.26 54.29C50.44 53.99 50.58 53.7 50.66 53.47C50.52 53.63 50.39 53.8 50.25 53.97C50.16 54.09 50.07 54.2 49.98 54.31C49.87 54.46 49.75 54.6 49.63 54.76C49.61 54.78 49.6 54.8 49.58 54.82C49.48 54.95 49.37 55.09 49.25 55.22L49.22 55.25C48.96 55.54 48.68 55.86 48.34 56.17C48.17 56.32 47.98 56.48 47.78 56.64C47.68 56.72 47.57 56.8 47.46 56.88C47.37 56.94 47.28 57 47.19 57.06ZM50.33 57.95C49.88 57.91 49.4 57.87 48.89 57.87C48.63 57.86 48.36 57.86 48.09 57.86C47.96 57.86 47.82 57.86 47.68 57.87C47.61 57.87 47.54 57.87 47.47 57.87C47.4 57.88 47.33 57.88 47.26 57.88C47.35 57.89 47.43 57.89 47.51 57.9C47.56 57.91 47.62 57.91 47.67 57.92C47.8 57.93 47.93 57.94 48.06 57.95C48.31 57.97 48.56 58 48.79 58.03C48.9 58.04 49 58.05 49.1 58.06C49.45 58.1 49.78 58.14 50.1 58.19C50.28 58.22 50.45 58.23 50.62 58.25C50.64 58.25 50.67 58.26 50.7 58.26C50.89 58.27 51.08 58.29 51.27 58.31C51.66 58.34 52.03 58.34 52.41 58.3C52.18 58.22 51.89 58.16 51.53 58.1C51.18 58.03 50.77 57.98 50.33 57.95ZM52.86 54.46C52.69 54.66 52.5 54.87 52.3 55.08C52.52 54.89 52.73 54.7 52.93 54.51C53.12 54.3 53.3 54.09 53.47 53.89C53.81 53.49 54.08 53.05 54.31 52.65C54.54 52.26 54.7 51.87 54.83 51.52C54.95 51.18 55.04 50.89 55.07 50.63C54.9 50.95 54.73 51.27 54.56 51.62C54.4 51.97 54.22 52.32 54.02 52.69C53.92 52.88 53.82 53.07 53.7 53.27C53.58 53.45 53.45 53.65 53.31 53.85L53.29 53.88C53.16 54.07 53.02 54.27 52.86 54.46ZM54.56 55.24C54.43 55.27 54.29 55.3 54.15 55.33C53.9 55.39 53.64 55.46 53.38 55.53C53.11 55.6 52.84 55.67 52.57 55.76C52.85 55.71 53.11 55.66 53.36 55.63C53.46 55.61 53.56 55.59 53.65 55.58C53.8 55.55 53.94 55.53 54.09 55.51C54.32 55.48 54.54 55.45 54.76 55.42C54.98 55.39 55.19 55.36 55.39 55.33C55.47 55.32 55.55 55.31 55.63 55.3C55.95 55.26 56.26 55.22 56.56 55.15L56.56 55.15C56.94 55.07 57.31 54.99 57.67 54.86C57.44 54.85 57.12 54.84 56.77 54.88C56.5 54.9 56.21 54.94 55.9 54.99C55.79 55.01 55.68 55.02 55.57 55.04C55.25 55.09 54.91 55.16 54.56 55.24ZM57.46 50.9C57.44 50.94 57.42 50.98 57.4 51.03C57.27 51.27 57.13 51.53 56.98 51.78C57.7 50.81 58.19 49.8 58.47 48.89C58.55 48.67 58.61 48.45 58.66 48.25C58.68 48.14 58.7 48.04 58.72 47.95C58.74 47.85 58.76 47.75 58.77 47.66C58.82 47.29 58.84 46.97 58.84 46.72C58.74 47.03 58.65 47.35 58.57 47.68C58.56 47.73 58.55 47.77 58.53 47.82C58.49 47.96 58.45 48.11 58.41 48.26C58.35 48.5 58.28 48.75 58.21 49C58.08 49.42 57.92 49.85 57.73 50.32C57.66 50.51 57.56 50.7 57.46 50.9ZM60.73 50.61C60.54 50.68 60.34 50.77 60.13 50.86C59.3 51.25 58.34 51.72 57.35 52.34C57.41 52.3 57.48 52.27 57.55 52.24C57.73 52.15 57.91 52.07 58.08 52C58.2 51.94 58.32 51.9 58.43 51.85C58.55 51.8 58.66 51.76 58.77 51.71C59.06 51.58 59.34 51.47 59.61 51.36C59.74 51.31 59.88 51.25 60.01 51.2C60.11 51.16 60.2 51.12 60.3 51.08C60.58 50.96 60.85 50.84 61.12 50.72C61.47 50.55 61.81 50.36 62.14 50.15C61.9 50.19 61.61 50.28 61.27 50.4L61.07 50.48C60.96 50.52 60.85 50.56 60.73 50.61ZM61.59 44.33C61.5 45.2 61.34 46.19 60.91 47.36C61.19 46.8 61.37 46.22 61.53 45.69C61.68 45.15 61.77 44.63 61.83 44.16C61.93 43.2 61.89 42.43 61.77 41.94C61.76 42.07 61.75 42.2 61.74 42.33C61.73 42.39 61.73 42.45 61.72 42.51C61.71 42.7 61.69 42.89 61.68 43.09C61.67 43.2 61.67 43.32 61.66 43.44C61.64 43.73 61.62 44.03 61.59 44.33ZM63.79 45.63C63.41 45.91 63.02 46.25 62.61 46.6C62.31 46.86 62.01 47.14 61.71 47.43C61.59 47.54 61.47 47.66 61.35 47.77C62.25 47.06 63 46.51 63.69 46.01L63.73 45.98C64.09 45.74 64.41 45.48 64.72 45.23C64.88 45.1 65.03 44.98 65.18 44.84C65.33 44.71 65.47 44.56 65.61 44.41C65.18 44.63 64.52 45.04 63.79 45.63ZM64.06 40.32C64.06 40.85 64 41.4 63.92 42.03C64.06 41.41 64.17 40.81 64.2 40.24C64.22 39.96 64.23 39.68 64.24 39.42C64.23 39.16 64.22 38.91 64.2 38.67C64.18 38.43 64.16 38.2 64.13 37.99C64.1 37.79 64.05 37.59 64.01 37.41L64.01 37.4C63.92 37.04 63.82 36.75 63.72 36.52C63.75 36.9 63.8 37.28 63.86 37.67C63.91 38.06 63.95 38.46 64 38.9C64.05 39.34 64.06 39.8 64.06 40.32ZM65.89 40.18C65.72 40.39 65.56 40.6 65.39 40.83C65.3 40.96 65.21 41.09 65.11 41.23C64.87 41.57 64.62 41.92 64.39 42.3C64.61 42.01 64.84 41.74 65.05 41.48C65.19 41.32 65.32 41.17 65.44 41.02C65.6 40.82 65.76 40.64 65.92 40.47C66.07 40.29 66.23 40.11 66.37 39.94C66.46 39.84 66.54 39.73 66.63 39.63C66.83 39.4 67.02 39.18 67.19 38.96C67.44 38.62 67.68 38.29 67.9 37.93C67.7 38.08 67.47 38.31 67.21 38.59C67.13 38.67 67.05 38.76 66.97 38.85C66.92 38.92 66.86 38.98 66.8 39.05C66.65 39.21 66.5 39.39 66.35 39.58C66.2 39.77 66.04 39.97 65.89 40.18ZM65.26 32.81C65.28 32.86 65.29 32.92 65.31 32.97C65.56 33.81 65.78 34.78 65.83 36.05C65.83 35.89 65.84 35.73 65.85 35.58C65.85 35.44 65.84 35.31 65.84 35.18C65.83 35.16 65.83 35.13 65.83 35.11C65.82 34.81 65.8 34.52 65.77 34.23C65.7 33.67 65.59 33.15 65.47 32.69C65.21 31.78 64.89 31.1 64.6 30.72C64.71 31.08 64.82 31.44 64.94 31.81C65 31.99 65.06 32.18 65.13 32.37C65.18 32.51 65.22 32.66 65.26 32.81ZM67.28 28.38C67.25 28.52 67.22 28.66 67.19 28.8C67.12 29.1 67.06 29.41 67.01 29.73C67.11 29.34 67.22 28.97 67.32 28.61C67.38 28.42 67.44 28.23 67.49 28.05C67.56 27.79 67.64 27.55 67.72 27.31C67.76 27.17 67.8 27.04 67.84 26.91C67.87 26.81 67.9 26.71 67.93 26.62C67.96 26.51 67.99 26.4 68.03 26.3C68.13 25.96 68.23 25.64 68.31 25.32L68.32 25.27C68.42 24.86 68.52 24.45 68.57 24.03C68.46 24.27 68.32 24.59 68.19 24.98C68.08 25.29 67.98 25.64 67.86 26.03C67.84 26.12 67.81 26.21 67.78 26.3C67.71 26.54 67.65 26.8 67.58 27.07C67.56 27.18 67.53 27.3 67.5 27.41C67.46 27.57 67.41 27.74 67.38 27.91C67.34 28.06 67.31 28.22 67.28 28.38ZM68.22 32.55C68.28 32.44 68.34 32.32 68.4 32.21C68.59 31.82 68.76 31.43 68.9 31.02C68.59 31.43 68.15 32.14 67.7 33.03C67.47 33.47 67.24 33.97 67 34.5C66.88 34.76 66.76 35.03 66.65 35.31C66.62 35.38 66.59 35.45 66.57 35.52C66.54 35.6 66.51 35.67 66.48 35.75C66.42 35.89 66.36 36.04 66.3 36.18C66.79 35.19 67.24 34.38 67.64 33.64C67.69 33.55 67.74 33.46 67.78 33.38C67.82 33.3 67.86 33.23 67.9 33.16C67.97 33.03 68.04 32.91 68.11 32.79C68.15 32.71 68.18 32.63 68.22 32.55Z" fill="#4A4F55" fill-opacity="1.000000" fill-rule="evenodd"/>
	<path id="Vector" d="M15.94 6.36C16.17 6.27 16.4 6.19 16.62 6.12C16.84 6.07 17.06 6.02 17.26 5.98C17.67 5.91 18.05 5.89 18.37 5.9C18.69 5.92 18.96 5.95 19.17 6.02C18.84 6.08 18.51 6.11 18.17 6.14C17.83 6.18 17.48 6.21 17.11 6.27C16.73 6.32 16.34 6.41 15.91 6.54C15.84 6.56 15.78 6.58 15.71 6.6C15.67 6.61 15.62 6.63 15.57 6.64C15.48 6.67 15.38 6.71 15.28 6.75C15.27 6.76 15.25 6.77 15.23 6.77C15 6.87 14.76 6.98 14.51 7.1C15 6.79 15.47 6.53 15.94 6.36ZM11.99 10.67C12.2 10.52 12.4 10.39 12.61 10.27C12.81 10.16 13.01 10.06 13.21 9.97C13.59 9.79 13.95 9.68 14.27 9.61C14.59 9.54 14.85 9.5 15.07 9.51C14.77 9.65 14.45 9.77 14.12 9.89C13.8 10.01 13.47 10.13 13.12 10.29C12.4 10.59 11.62 11.01 10.73 11.76C11.15 11.34 11.56 10.96 11.99 10.67ZM7.92 13.82C8 12.87 8.09 12.03 8.3 11.18C8.31 11.45 8.32 11.81 8.3 12.22C8.29 12.42 8.27 12.64 8.25 12.87C8.24 12.95 8.23 13.03 8.22 13.11C8.21 13.28 8.2 13.44 8.18 13.61C8.15 13.87 8.11 14.13 8.07 14.41C8.03 14.69 7.99 14.97 7.94 15.26C7.91 15.42 7.88 15.59 7.86 15.76C7.78 16.19 7.7 16.64 7.59 17.09C7.73 16.12 7.8 15.28 7.86 14.51C7.88 14.27 7.9 14.05 7.92 13.82ZM8.95 15.89C9.13 15.69 9.3 15.5 9.48 15.34C9.66 15.17 9.83 15.02 10.01 14.89C10.18 14.76 10.34 14.63 10.5 14.53C10.67 14.43 10.83 14.34 10.97 14.27C11.27 14.12 11.52 14.01 11.74 13.97C11.46 14.19 11.17 14.38 10.87 14.59C10.58 14.78 10.29 14.99 9.98 15.22C9.34 15.7 8.66 16.31 7.93 17.27C8.26 16.75 8.59 16.28 8.95 15.89ZM5.55 19.99C5.54 19.93 5.54 19.88 5.53 19.82C5.44 18.94 5.38 18.14 5.41 17.3C5.48 17.57 5.55 17.92 5.61 18.32C5.63 18.46 5.64 18.6 5.66 18.75C5.67 18.82 5.67 18.9 5.68 18.98C5.69 19.04 5.69 19.11 5.7 19.18C5.72 19.35 5.74 19.53 5.75 19.71C5.77 19.97 5.79 20.24 5.8 20.52C5.82 20.8 5.83 21.09 5.84 21.39C5.84 21.55 5.84 21.72 5.85 21.9C5.86 22.34 5.86 22.8 5.84 23.26C5.79 22.37 5.72 21.59 5.64 20.89C5.63 20.81 5.63 20.74 5.62 20.67C5.61 20.6 5.6 20.54 5.6 20.47C5.58 20.3 5.56 20.14 5.55 19.99ZM6.98 21.75C7.11 21.51 7.25 21.28 7.38 21.08C7.53 20.87 7.67 20.68 7.82 20.5C7.96 20.33 8.09 20.17 8.23 20.03C8.37 19.89 8.51 19.76 8.64 19.65C8.9 19.43 9.13 19.26 9.33 19.16C9.1 19.45 8.86 19.71 8.6 19.99C8.36 20.25 8.11 20.53 7.85 20.84C7.32 21.46 6.77 22.24 6.24 23.36C6.47 22.77 6.7 22.22 6.98 21.75ZM6.44 27.2C6.54 26.97 6.65 26.74 6.75 26.54C6.95 26.12 7.18 25.77 7.39 25.49C7.6 25.21 7.79 24.99 7.97 24.84C7.95 24.88 7.93 24.92 7.91 24.96C7.76 25.24 7.61 25.52 7.44 25.81C7.24 26.13 7.05 26.48 6.85 26.85C6.83 26.89 6.81 26.93 6.79 26.97C6.71 27.12 6.63 27.28 6.55 27.44C6.46 27.65 6.36 27.87 6.27 28.11C6.08 28.58 5.92 29.11 5.77 29.72C5.82 29.4 5.87 29.1 5.94 28.8C5.99 28.55 6.06 28.31 6.14 28.08C6.15 28.04 6.16 28 6.17 27.96C6.18 27.95 6.18 27.93 6.19 27.91C6.27 27.66 6.35 27.43 6.44 27.2ZM6.51 36.05C6.5 35.89 6.49 35.73 6.49 35.57C6.49 35.44 6.49 35.3 6.5 35.16C6.5 35.14 6.5 35.13 6.5 35.11C6.51 34.81 6.54 34.51 6.56 34.23C6.63 33.67 6.75 33.15 6.86 32.69C7.13 31.77 7.45 31.1 7.74 30.72C7.63 31.08 7.52 31.44 7.39 31.8C7.35 31.92 7.31 32.04 7.27 32.17C7.25 32.23 7.23 32.3 7.2 32.37C7.15 32.51 7.11 32.65 7.07 32.8C7.05 32.86 7.04 32.91 7.02 32.97C6.78 33.81 6.55 34.78 6.51 36.05ZM5.14 38.95C4.89 38.62 4.65 38.29 4.43 37.92C4.63 38.08 4.87 38.3 5.13 38.59C5.2 38.67 5.28 38.76 5.36 38.85C5.42 38.92 5.47 38.98 5.53 39.05C5.68 39.21 5.83 39.39 5.98 39.58C6.13 39.77 6.29 39.97 6.45 40.18C6.61 40.38 6.78 40.6 6.94 40.83C7.03 40.96 7.13 41.09 7.22 41.23C7.46 41.57 7.71 41.92 7.95 42.3C7.72 42.01 7.5 41.74 7.28 41.48C7.15 41.32 7.02 41.17 6.89 41.01C6.73 40.82 6.57 40.64 6.42 40.46C6.26 40.28 6.11 40.11 5.96 39.94C5.88 39.83 5.79 39.73 5.7 39.63C5.51 39.4 5.32 39.18 5.14 38.95ZM10.8 45.69C10.65 45.15 10.56 44.62 10.5 44.16C10.4 43.19 10.44 42.43 10.56 41.94L10.56 41.96C10.58 42.08 10.59 42.2 10.59 42.32C10.6 42.39 10.6 42.45 10.61 42.51C10.63 42.7 10.64 42.89 10.65 43.09C10.66 43.2 10.67 43.32 10.67 43.44C10.69 43.68 10.7 43.93 10.73 44.18C10.73 44.23 10.74 44.28 10.75 44.33Q10.75 44.35 10.75 44.36C10.84 45.23 11 46.21 11.42 47.35C11.15 46.8 10.96 46.22 10.8 45.69ZM13.86 48.89C13.79 48.66 13.73 48.45 13.68 48.24C13.65 48.14 13.63 48.04 13.61 47.95C13.59 47.85 13.58 47.75 13.56 47.66C13.55 47.56 13.54 47.46 13.53 47.37C13.5 47.12 13.49 46.9 13.5 46.72C13.6 47.03 13.68 47.35 13.76 47.68C13.77 47.72 13.79 47.77 13.8 47.82C13.84 47.96 13.88 48.11 13.92 48.26C13.98 48.5 14.05 48.74 14.13 49C14.25 49.42 14.41 49.84 14.6 50.31C14.68 50.51 14.77 50.7 14.87 50.9C14.89 50.94 14.92 50.98 14.94 51.02C15.06 51.27 15.2 51.52 15.36 51.78C14.63 50.81 14.14 49.8 13.86 48.89ZM11.21 50.72C10.86 50.55 10.53 50.36 10.19 50.15C10.43 50.19 10.72 50.27 11.06 50.4C11.13 50.42 11.2 50.45 11.27 50.48C11.38 50.52 11.49 50.56 11.6 50.61C11.8 50.68 12 50.77 12.2 50.86C13.03 51.24 14 51.72 14.99 52.33C14.92 52.3 14.85 52.27 14.78 52.24C14.6 52.15 14.42 52.07 14.25 51.99C14.13 51.94 14.02 51.89 13.9 51.85C13.79 51.8 13.67 51.75 13.56 51.7C13.27 51.58 12.99 51.47 12.73 51.36C12.59 51.31 12.45 51.25 12.32 51.2C12.23 51.16 12.13 51.12 12.04 51.08C11.76 50.96 11.48 50.84 11.21 50.72ZM18.25 55.51C18.02 55.47 17.79 55.44 17.57 55.42C17.35 55.39 17.15 55.36 16.94 55.33C16.87 55.32 16.79 55.31 16.71 55.3C16.39 55.26 16.07 55.21 15.77 55.15L15.77 55.15C15.4 55.07 15.03 54.99 14.66 54.85C14.9 54.84 15.21 54.84 15.56 54.87C15.83 54.89 16.12 54.94 16.44 54.99C16.54 55 16.65 55.02 16.76 55.04C17.08 55.09 17.42 55.16 17.77 55.24C17.91 55.27 18.05 55.3 18.19 55.33C18.44 55.39 18.69 55.46 18.96 55.53C19.22 55.6 19.49 55.67 19.76 55.76C19.49 55.7 19.23 55.66 18.97 55.62C18.87 55.61 18.77 55.59 18.68 55.58C18.53 55.55 18.39 55.53 18.25 55.51ZM29.15 57.24C28.92 57.14 28.71 57.04 28.51 56.92C28.3 56.8 28.12 56.68 27.94 56.55C27.76 56.43 27.6 56.3 27.45 56.18C27.31 56.05 27.17 55.92 27.05 55.8C26.81 55.55 26.63 55.31 26.5 55.11C26.78 55.31 27.05 55.52 27.33 55.75C27.56 55.95 27.81 56.14 28.07 56.34C28.12 56.37 28.16 56.41 28.21 56.44C28.53 56.69 28.88 56.91 29.28 57.13C29.68 57.37 30.13 57.55 30.65 57.73C30.38 57.67 30.12 57.6 29.87 57.53C29.66 57.47 29.45 57.38 29.26 57.29C29.22 57.27 29.19 57.26 29.15 57.24ZM23.54 58.03C23.44 58.04 23.34 58.05 23.24 58.06C22.89 58.1 22.56 58.14 22.24 58.19C22.06 58.22 21.89 58.23 21.72 58.25C21.69 58.25 21.67 58.25 21.64 58.26L21.45 58.27C21.32 58.28 21.19 58.29 21.06 58.31C20.67 58.34 20.3 58.33 19.92 58.3C20.15 58.22 20.45 58.16 20.8 58.1C21.15 58.03 21.56 57.98 22 57.95C22.45 57.91 22.94 57.87 23.45 57.87C23.71 57.86 23.97 57.85 24.24 57.86C24.38 57.86 24.51 57.86 24.65 57.87C24.72 57.87 24.79 57.87 24.87 57.87C24.93 57.87 25 57.87 25.07 57.88C25 57.88 24.94 57.89 24.87 57.9C24.8 57.9 24.73 57.91 24.66 57.92C24.53 57.93 24.4 57.93 24.27 57.94C24.02 57.97 23.78 57.99 23.54 58.03ZM26.82 60.03C26.46 60.15 26.09 60.25 25.71 60.32C25.92 60.18 26.2 60.03 26.53 59.89C26.68 59.82 26.84 59.76 27.01 59.69C27.03 59.68 27.05 59.67 27.07 59.67C27.26 59.58 27.46 59.5 27.68 59.43C27.89 59.35 28.12 59.28 28.35 59.21C28.58 59.13 28.82 59.05 29.07 58.98C29.2 58.94 29.34 58.9 29.47 58.87C29.6 58.84 29.72 58.81 29.84 58.77C30.11 58.7 30.38 58.63 30.66 58.57C30.33 58.68 30.02 58.8 29.72 58.91C29.54 58.98 29.37 59.05 29.19 59.11C28.98 59.19 28.78 59.27 28.58 59.35C28.36 59.44 28.15 59.53 27.95 59.6C27.83 59.65 27.7 59.7 27.58 59.75C27.32 59.85 27.07 59.95 26.82 60.03Z" fill="#4A4F55" fill-opacity="1.000000" fill-rule="evenodd"/>
	<path id="Vector" d="M45.76 46.74L45.76 48.31L26.99 48.31L26.99 46.74C26.99 45.87 27.69 45.16 28.55 45.16L31.7 45.16C31.79 43.2 33.05 41.56 34.81 40.93L34.81 22.49C33.99 21.96 33.43 21.04 33.43 19.99L34.81 19.99L37.94 19.99L39.32 19.99C39.32 21.04 38.76 21.96 37.94 22.49L37.94 40.93C39.7 41.56 40.97 43.2 41.05 45.16L44.2 45.16C45.06 45.16 45.76 45.87 45.76 46.74ZM56.71 32.58C55.57 35.82 52.51 38.17 48.89 38.17C45.27 38.17 42.22 35.82 41.07 32.58L42.87 32.58L48.16 18.49C48.39 17.88 49.39 17.88 49.62 18.49L54.91 32.58L56.71 32.58ZM53.23 32.58L48.89 21L44.55 32.58C44.55 32.58 46.89 35.3 48.89 35.3C50.89 35.3 53.23 32.58 53.23 32.58L53.23 32.58ZM23.86 16.86C24.57 16.86 25.15 16.38 25.35 15.74C25.86 15.54 26.39 15.27 26.94 14.99C28.14 14.39 29.49 13.7 30.9 13.7C32.25 13.7 33.1 14.32 33.58 14.86C33.56 14.99 33.54 15.13 33.54 15.27C33.54 16.84 34.81 18.12 36.38 18.12C37.94 18.12 39.21 16.84 39.21 15.27C39.21 15.13 39.19 15 39.17 14.86C39.65 14.33 40.5 13.7 41.85 13.7C43.26 13.7 44.62 14.39 45.81 14.99C46.36 15.27 46.89 15.54 47.4 15.74C47.6 16.38 48.18 16.86 48.89 16.86C49.76 16.86 50.47 16.15 50.47 15.27C50.47 14.39 49.76 13.68 48.89 13.68C48.44 13.68 48.04 13.88 47.75 14.18C47.36 14.02 46.95 13.81 46.52 13.59C45.16 12.9 43.63 12.12 41.85 12.12C40.29 12.12 39.21 12.72 38.47 13.36C38.14 12.99 37.72 12.72 37.24 12.56C37.82 12.25 38.23 11.65 38.23 10.94C38.23 9.91 36.38 7.51 36.38 7.51C36.38 7.51 34.52 9.91 34.52 10.94C34.52 11.65 34.93 12.25 35.51 12.56C35.03 12.72 34.61 12.99 34.28 13.36C33.54 12.72 32.46 12.12 30.9 12.12C29.12 12.12 27.59 12.9 26.23 13.59C25.8 13.81 25.39 14.02 25 14.18C24.71 13.88 24.31 13.68 23.86 13.68C22.99 13.68 22.28 14.39 22.28 15.27C22.28 16.15 22.99 16.86 23.86 16.86ZM23.86 38.17C20.24 38.17 17.19 35.82 16.04 32.58L17.84 32.58L23.13 18.49C23.36 17.88 24.36 17.88 24.59 18.49L29.88 32.58L31.68 32.58C30.54 35.82 27.48 38.17 23.86 38.17ZM28.2 32.58L23.86 21L19.52 32.58C19.52 32.58 21.86 35.3 23.86 35.3C25.86 35.3 28.2 32.58 28.2 32.58L28.2 32.58Z" fill="#CCA876" fill-opacity="1.000000" fill-rule="nonzero"/>
</svg>
